<?xml version="1.0" encoding="iso-8859-1"?>
<!-- Generator: Adobe Illustrator 19.0.0, SVG Export Plug-In . SVG Version: 6.00 Build 0)  -->
<svg version="1.1" id="Capa_1" xmlns="http://www.w3.org/2000/svg" xmlns:xlink="http://www.w3.org/1999/xlink" x="0px" y="0px"
	 viewBox="0 0 496 496" style="enable-background:new 0 0 496 496;" xml:space="preserve">
<rect x="112" y="96" style="fill:#FFCB57;" width="272" height="144"/>
<path style="fill:#E56565;" d="M408,224h-32c-48.52,0-88,39.48-88,88v80c0,57.344,46.656,104,104,104s104-46.656,104-104v-80
	C496,263.48,456.52,224,408,224z M376,240h32c39.696,0,72,32.304,72,72v16h-64v-16c0-10.416-6.712-19.216-16-22.528V256h-16v33.472
	c-9.288,3.312-16,12.112-16,22.528v16h-64v-16C304,272.304,336.304,240,376,240z M400,312v48c0,4.408-3.592,8-8,8s-8-3.592-8-8v-48
	c0-4.408,3.592-8,8-8S400,307.592,400,312z M392,480c-48.52,0-88-39.48-88-88v-48h64v16c0,13.232,10.768,24,24,24s24-10.768,24-24
	v-16h64v48C480,440.52,440.52,480,392,480z"/>
<g>
	<path style="fill:#3F3A34;" d="M0,344c0,22.056,17.944,40,40,40h136v32h-32v16h128v-16h-80v-32h80v-16H40
		c-13.232,0-24-10.768-24-24v-8h256v-16H0V344z"/>
	<path style="fill:#3F3A34;" d="M456,0H40C17.944,0,0,17.944,0,40v264h16V40c0-13.232,10.768-24,24-24h416c13.232,0,24,10.768,24,24
		v200h16V40C496,17.944,478.056,0,456,0z"/>
	<rect x="432" y="80" style="fill:#3F3A34;" width="16" height="128"/>
	<polygon style="fill:#3F3A34;" points="48,256 64,256 64,64 448,64 448,48 48,48 	"/>
	<rect x="48" y="272" style="fill:#3F3A34;" width="224" height="16"/>
	<path style="fill:#3F3A34;" d="M248,232v-40v-16v-24c0-26.472-21.528-48-48-48s-48,21.528-48,48v24v16v40h16v-40h64v40H248z
		 M168,176v-24c0-17.648,14.352-32,32-32s32,14.352,32,32v24H168z"/>
	<path style="fill:#3F3A34;" d="M312,104h-40v128h40c22.056,0,40-17.944,40-40v-48C352,121.944,334.056,104,312,104z M336,192
		c0,13.232-10.768,24-24,24h-24v-96h24c13.232,0,24,10.768,24,24V192z"/>
</g>
<g>
</g>
<g>
</g>
<g>
</g>
<g>
</g>
<g>
</g>
<g>
</g>
<g>
</g>
<g>
</g>
<g>
</g>
<g>
</g>
<g>
</g>
<g>
</g>
<g>
</g>
<g>
</g>
<g>
</g>
</svg>
